<svg version="1.1" id="Layer_1" xmlns="http://www.w3.org/2000/svg" xmlns:xlink="http://www.w3.org/1999/xlink" x="0px" y="0px"
	 width="100%" viewBox="0 0 64 64" enable-background="new 0 0 64 64" xml:space="preserve">
<path fill="none" opacity="1.000000" stroke="#000000" stroke-linecap="round" stroke-linejoin="round" stroke-width="2.000000"
	d="
M13.500000,16.500000 
	C13.500000,27.500000 13.500000,38.500000 13.500000,49.500000 
"/>
<path fill="none" opacity="1.000000" stroke="#000000" stroke-linecap="round" stroke-linejoin="round" stroke-width="2.000000"
	d="
M46.500004,16.500000 
	C47.666668,19.500000 48.629551,22.600227 50.044891,25.477922 
	C52.542843,30.556789 52.991699,35.398045 50.072159,40.540962 
	C48.499836,43.310680 47.666668,46.500000 46.500000,49.500000 
"/>
<path fill="none" opacity="1.000000" stroke="#000000" stroke-linecap="round" stroke-linejoin="round" stroke-width="3.000000"
	d="
M30.500000,40.000000 
	C31.498230,34.190426 30.787167,28.332026 30.999512,22.499983 
	C31.124519,19.066587 28.637959,19.543062 26.500000,19.500000 
"/>
<path fill="none" opacity="1.000000" stroke="#000000" stroke-linecap="round" stroke-linejoin="round" stroke-width="3.000000"
	d="
M20.500000,23.500000 
	C22.883814,24.077457 23.524099,25.578978 23.575045,27.998421 
	C23.689302,33.424408 26.733892,37.123817 30.500000,37.000000 
	C35.389969,36.839233 38.281971,33.767658 38.424644,27.998137 
	C38.484428,25.580544 39.116188,24.077457 41.500000,23.500000 
"/>
<path fill="none" opacity="1.000000" stroke="#000000" stroke-linecap="round" stroke-linejoin="round" stroke-width="2.000000"
	d="
M26.500000,41.500000 
	C29.500000,40.473557 32.500000,40.732998 35.500000,41.500000 
"/>
<path fill="none" opacity="1.000000" stroke="#000000" stroke-linecap="round" stroke-linejoin="round" stroke-width="2.000000"
	d="
M35.500000,19.500000 
	C34.179359,19.768206 32.721916,18.941988 31.500000,20.000000 
"/>
</svg>